<svg id="SvgjsSvg1001" width="550" height="550" xmlns="http://www.w3.org/2000/svg" version="1.1" xmlns:xlink="http://www.w3.org/1999/xlink" xmlns:svgjs="http://svgjs.com/svgjs"><defs id="SvgjsDefs1002"></defs><g id="SvgjsG1008"><svg xmlns="http://www.w3.org/2000/svg" enable-background="new 0 0 2500 2500" viewBox="0 0 2500 2500" width="550" height="550"><path fill="#edede9" d="M1109.03,368.91l-29.28-0.37c-5.24-25.81-15.63-49.76-30.05-70.75l21.79-21.25c3.18-3.1,3.24-8.22,0.14-11.4
			l-39.37-40.37c-3.1-3.18-8.22-3.24-11.4-0.14l-22.61,22.08c-20.71-13.99-44.26-24.07-69.64-29.22l0.4-31.61
			c0.06-4.49-3.51-8.14-7.96-8.2l-56.37-0.71c-4.45-0.06-8.11,3.51-8.16,7.99l-0.4,31.6c-25.66,4.53-49.6,14.08-70.76,27.68
			l-21.22-21.76c-3.13-3.21-8.22-3.27-11.4-0.14l-40.37,39.33c-3.18,3.13-3.24,8.22-0.14,11.4l20.55,21.07
			c-15.11,20.96-26.17,45.01-31.94,71.12l-27.39-0.35c-4.45-0.06-8.11,3.54-8.16,7.99l-0.71,56.37c-0.06,4.45,3.51,8.11,7.96,8.16
			l26.18,0.33c4.31,27.28,14.31,52.74,28.81,74.99l-17.45,17.02c-3.18,3.13-3.24,8.22-0.14,11.44l39.37,40.34
			c3.1,3.21,8.23,3.28,11.4,0.14l17.05-16.62c22.03,15.7,47.5,26.88,75.1,32.25l-0.29,23.14c-0.06,4.45,3.51,8.11,7.96,8.16
			l56.37,0.71c4.45,0.06,8.11-3.51,8.16-7.96l0.3-23.68c27.46-5.09,52.9-15.96,75.02-31.34l17.05,17.49
			c3.1,3.18,8.22,3.24,11.4,0.14l40.37-39.37c3.18-3.1,3.24-8.19,0.14-11.4l-18.18-18.65c14.55-21.78,24.81-46.68,29.54-73.55
			l27.42,0.35c4.45,0.06,8.11-3.51,8.16-7.96l0.71-56.37C1117.04,372.62,1113.48,368.97,1109.03,368.91z M889.1,536.92
			c-73.87-0.93-132.99-61.56-132.06-135.43c0.93-73.84,61.56-132.96,135.43-132.03c73.87,0.93,132.99,61.56,132.06,135.4
			C1023.6,478.73,962.97,537.85,889.1,536.92z" class="coloredede9 svgShape"></path><path fill="#383d3d" d="M1840.71,2323.03h-835.59c-72.77,0-131.77-58.99-131.77-131.77V461.67
								c0-72.77,58.99-131.77,131.77-131.77h835.59c72.77,0,131.77,58.99,131.77,131.77v1729.59
								C1972.47,2264.03,1913.48,2323.03,1840.71,2323.03z" class="color383d3d svgShape"></path><path fill="#ffffff" d="M1005.11,2276.96c-47.26,0-85.7-38.45-85.7-85.7V461.67c0-47.26,38.45-85.7,85.7-85.7h835.59
								c47.26,0,85.7,38.45,85.7,85.7v1729.59c0,47.26-38.45,85.7-85.7,85.7H1005.11z" class="colorfff svgShape"></path><path fill="#f9f9f9" d="M1690.67,1790.22h-535.52c-66.25,0-119.95-53.7-119.95-119.95V994.6c0-66.25,53.7-119.95,119.95-119.95
					h535.52c66.25,0,119.95,53.7,119.95,119.95v675.66C1810.62,1736.51,1756.92,1790.22,1690.67,1790.22z" class="colorf9f9f9 svgShape"></path><path fill="#edede9" d="M1634.67,1239.01h-423.53c-33.25,0-60.21-26.96-60.21-60.21l0,0c0-33.25,26.96-60.21,60.21-60.21h423.53
					c33.25,0,60.21,26.96,60.21,60.21l0,0C1694.88,1212.05,1667.92,1239.01,1634.67,1239.01z" class="coloredede9 svgShape"></path><path fill="#64b5f6" d="M1634.67,1666.69h-423.53c-33.25,0-60.21-26.96-60.21-60.21l0,0c0-33.25,26.96-60.21,60.21-60.21h423.53
					c33.25,0,60.21,26.96,60.21,60.21l0,0C1694.88,1639.73,1667.92,1666.69,1634.67,1666.69z" class="color64b5f6 svgShape"></path><path fill="#fa5669" d="M1634.67,1452.85h-423.53c-33.25,0-60.21-26.96-60.21-60.21l0,0c0-33.25,26.96-60.21,60.21-60.21h423.53
						c33.25,0,60.21,26.96,60.21,60.21l0,0C1694.88,1425.89,1667.92,1452.85,1634.67,1452.85z" class="colorfa5669 svgShape"></path><circle cx="1264.09" cy="1392.64" r="26.56" fill="#ffffff" class="colorfff svgShape"></circle><circle cx="1369.97" cy="1392.64" r="26.56" fill="#ffffff" class="colorfff svgShape"></circle><circle cx="1475.85" cy="1392.64" r="26.56" fill="#ffffff" class="colorfff svgShape"></circle><circle cx="1581.73" cy="1392.64" r="26.56" fill="#ffffff" class="colorfff svgShape"></circle><circle cx="1422.91" cy="874.65" r="201.64" fill="#e2e2e2" class="colore2e2e2 svgShape"></circle><path fill="#edede9" d="M1597.47,874.66c0,27.68-6.42,53.85-17.84,77.02c-7.31,14.63-16.54,28.09-27.4,40.05
								c-2.73,3.14-5.67,6.15-8.68,9.02c-4.99,4.78-10.32,9.29-15.92,13.53c-29.18,21.94-65.47,34.92-104.76,34.92
								s-75.58-12.98-104.76-34.92c-5.6-4.23-10.87-8.68-15.85-13.53c-3.01-2.87-5.95-5.88-8.68-9.02
								c-10.93-11.96-20.16-25.42-27.4-40.05c-11.34-23.17-17.77-49.34-17.77-77.02c0-96.36,78.11-174.54,174.47-174.54
								C1519.29,700.13,1597.47,778.31,1597.47,874.66z" class="coloredede9 svgShape"></path><path fill="#ffffff" d="M1552.23,991.73c-2.73,3.14-5.67,6.15-8.68,9.02c-4.99,4.78-10.32,9.29-15.92,13.53
							c-29.18,21.94-65.47,34.92-104.76,34.92s-75.58-12.98-104.76-34.92c-5.6-4.23-10.87-8.68-15.85-13.53
							c-3.01-2.87-5.95-5.88-8.68-9.02c22.96-48.45,72.23-81.94,129.36-81.94c39.5,0,75.17,15.99,101.07,41.89
							C1535.56,963.23,1545.13,976.76,1552.23,991.73z" class="colorfff svgShape"></path><circle cx="1417.32" cy="816.42" r="67.63" fill="#ffffff" class="colorfff svgShape"></circle><path fill="#f9f9f9" d="M1608.16,1197.49h-370.51c-10.61,0-19.2-8.6-19.2-19.2l0,0c0-10.61,8.6-19.2,19.2-19.2h370.51
					c10.61,0,19.2,8.6,19.2,19.2l0,0C1627.37,1188.89,1618.77,1197.49,1608.16,1197.49z" class="colorf9f9f9 svgShape"></path><path fill="#ffffff" d="M1608.16,1625.68h-370.51c-10.61,0-19.2-8.6-19.2-19.2l0,0c0-10.61,8.6-19.2,19.2-19.2h370.51
					c10.61,0,19.2,8.6,19.2,19.2l0,0C1627.37,1617.09,1618.77,1625.68,1608.16,1625.68z" class="colorfff svgShape"></path><g fill="#000000" class="color000 svgShape"><path fill="#f9f9f9" d="M2475,1010.24v125.14c0,41.91-34.04,75.88-75.95,75.88H2025.9l-84.99,88.7v-88.7h-29.09
						c-41.97,0-75.94-33.97-75.94-75.88v-125.14c0-41.91,33.97-75.88,75.94-75.88h487.23C2440.96,934.36,2475,968.33,2475,1010.24z" class="colorf9f9f9 svgShape"></path><path fill="#fa5669" d="M2357.09,1130.16h-403.32c-31.66,0-57.33-25.67-57.33-57.33l0,0c0-31.66,25.67-57.33,57.33-57.33h403.32
							c31.66,0,57.33,25.67,57.33,57.33l0,0C2414.42,1104.49,2388.75,1130.16,2357.09,1130.16z" class="colorfa5669 svgShape"></path><circle cx="2004.19" cy="1072.82" r="25.29" fill="#ffffff" class="colorfff svgShape"></circle><circle cx="2105.02" cy="1072.82" r="25.29" fill="#ffffff" class="colorfff svgShape"></circle><circle cx="2205.85" cy="1072.82" r="25.29" fill="#ffffff" class="colorfff svgShape"></circle><circle cx="2306.67" cy="1072.82" r="25.29" fill="#ffffff" class="colorfff svgShape"></circle><path fill="#ffb703" d="M2210.81,1351.46c1.47,53.52,46.08,95.71,99.6,94.24s95.71-46.03,94.24-99.55s-46.03-95.75-99.55-94.29
						C2251.57,1253.33,2209.34,1297.95,2210.81,1351.46z M2382.3,1346.76c0.31,11.45-8.73,21.01-20.19,21.32
						c-11.5,0.32-21.05-8.73-21.37-20.18c-0.32-11.5,8.73-21.06,20.23-21.37C2372.43,1326.22,2381.99,1335.27,2382.3,1346.76z" class="colorffb703 svgShape"></path><polygon fill="#ffb703" points="2240.95 1325.95 2241.87 1359.32 2200.88 1400.07 2170.3 1373.16 2141.24 1401.7 2110.41 1374.29 2080.8 1403.36 2051 1375.92 2023.75 1402.25 1991.18 1369.51 2003.61 1355.37 2011.19 1346.75 2024.25 1331.89" class="colorffb703 svgShape"></polygon><polygon fill="#efa706" points="2209.15 1341.32 2209.38 1349.73 2003.61 1355.37 2011.19 1346.75" class="colorefa706 svgShape"></polygon><path fill="#edede9" d="M2247.52,765.48h-24.83v-55.92c0-37.09-30.17-67.26-67.26-67.26s-67.26,30.17-67.26,67.26v55.92h-24.83
						v-55.92c0-50.78,41.31-92.09,92.09-92.09s92.09,41.31,92.09,92.09V765.48z" class="coloredede9 svgShape"></path><g fill="#000000" class="color000 svgShape"><path fill="#ffb703" d="M2276.72,970.56h-242.56c-7.75,0-14.03-6.28-14.03-14.03V762.06c0-7.75,6.28-14.03,14.03-14.03h242.56
						c7.75,0,14.03,6.28,14.03,14.03v194.47C2290.74,964.28,2284.46,970.56,2276.72,970.56z" class="colorffb703 svgShape"></path><path fill="#efa706" d="M2290.73,762.05v194.48c0,7.76-6.27,14.03-13.97,14.03h-242.59c-7.75,0-14.03-6.28-14.03-14.03v-21.66
						h37.43c103.19,0,186.84-83.65,186.84-186.84l0,0h32.34C2284.46,748.02,2290.73,754.29,2290.73,762.05z" class="colorefa706 svgShape"></path><circle cx="2155.43" cy="833.63" r="35.26" fill="#2e3535" class="color2e3535 svgShape"></circle><path fill="#2e3535" d="M2155.43,909.97L2155.43,909.97c-8.94,0-16.19-7.25-16.19-16.19V853.2h32.37v40.58
							C2171.62,902.73,2164.37,909.97,2155.43,909.97z" class="color2e3535 svgShape"></path><path fill="#282d2d" d="M2190.7,833.63c0,19.5-15.78,35.28-35.28,35.28c-10.58,0-20.03-4.67-26.47-12.06
							c5.67,3.9,12.53,6.21,19.97,6.21c19.5,0,35.28-15.78,35.28-35.28c0-8.92-3.31-17.02-8.81-23.22
							C2184.67,810.87,2190.7,821.57,2190.7,833.63z" class="color282d2d svgShape"></path></g></g><g fill="#000000" class="color000 svgShape"><rect width="129.07" height="72.2" x="143.7" y="2173.48" fill="#f7c19b" transform="rotate(-87.186 208.238 2209.577)" class="colorf7c19b svgShape"></rect><path fill="#dbdbdb" d="M351.23,2323.03H172.88c-4.61,0-8.35-3.74-8.35-8.35v-8.69h195.04v8.69
						C359.57,2319.29,355.84,2323.03,351.23,2323.03z" class="colordbdbdb svgShape"></path><path fill="#37424c" d="M359.58,2311.77c-0.36,0.07-0.75,0.11-1.15,0.11H166.08c-0.53,0-1.04-0.05-1.55-0.15
						c-3.9-0.73-6.85-4.16-6.85-8.27v-64.56c0-8.95,9.13-14.95,17.39-11.45c21.87,9.28,44.42,8.97,67.77-2.31
						c2.99-1.46,6.56-0.95,8.99,1.31l7.78,7.29l0.27,0.26l1.17,1.09c1.39,1.29,2.81,2.52,4.27,3.7c0.15,0.13,0.31,0.26,0.46,0.36
						c7.16,5.72,15.29,10.13,24,12.92c0.27,0.09,0.57,0.18,0.84,0.26c1.9,0.6,3.85,1.11,5.8,1.53c0.42,0.09,0.84,0.18,1.24,0.29
						c0.04,0,0.05,0,0.07,0.02c46.57,10.64,62.34,38.24,66.45,49.63C365.48,2307.38,363.15,2311.1,359.58,2311.77z" class="color37424c svgShape"></path><path fill="#e1e3e8" d="M266.71,2251.68c0.11,1.49-1.02,2.81-2.53,2.93h-0.29c-1.39-0.05-2.53-1.13-2.64-2.53l-0.98-12.9
							l-0.38-5.18l1.17,1.09c1.39,1.29,2.81,2.52,4.27,3.7c0.15,0.13,0.31,0.26,0.46,0.36L266.71,2251.68z" class="colore1e3e8 svgShape"></path><path fill="#e1e3e8" d="M265.31 2238.79l-5.05.38-12.89.98c-.11.02-.22.02-.31.02-1.37-.05-2.52-1.13-2.62-2.53-.13-1.49 1-2.81 2.52-2.93l12.65-.97.27.26 1.17 1.09C262.43 2236.39 263.85 2237.61 265.31 2238.79zM297.72 2254.18l5.96 11.43c.69 1.33.18 2.99-1.17 3.68-.26.13-.51.22-.78.27-1.15.2-2.33-.35-2.9-1.44l-5.98-11.46-2.24-4.32c1.9.6 3.85 1.11 5.8 1.53.42.09.84.18 1.24.29L297.72 2254.18z" class="colore1e3e8 svgShape"></path><path fill="#e1e3e8" d="M297.64,2254.16l-4.79,2.5l-11.48,5.98c-0.26,0.13-0.51,0.22-0.78,0.27c-1.15,0.2-2.33-0.35-2.9-1.44
							c-0.71-1.33-0.18-2.99,1.15-3.68l10.94-5.7c0.27,0.09,0.57,0.18,0.84,0.26c1.9,0.6,3.85,1.11,5.8,1.53
							C296.82,2253.96,297.24,2254.05,297.64,2254.16z" class="colore1e3e8 svgShape"></path><rect width="72.2" height="129.07" x="442.41" y="2148.91" fill="#f7c19b" transform="rotate(-4.513 478.121 2213.542)" class="colorf7c19b svgShape"></rect><path fill="#dbdbdb" d="M625.49,2323.03H447.14c-4.61,0-8.35-3.74-8.35-8.35v-8.69h195.04v8.69
						C633.84,2319.29,630.1,2323.03,625.49,2323.03z" class="colordbdbdb svgShape"></path><path fill="#37424c" d="M633.84,2311.77c-0.36,0.07-0.75,0.11-1.15,0.11H440.35c-0.53,0-1.04-0.05-1.55-0.15
						c-3.9-0.73-6.85-4.16-6.85-8.27v-64.56c0-8.95,9.13-14.95,17.39-11.45c21.87,9.28,44.42,8.97,67.77-2.31
						c2.99-1.46,6.56-0.95,8.99,1.31l7.78,7.29l0.27,0.26l1.17,1.09c1.39,1.29,2.81,2.52,4.27,3.7c0.15,0.13,0.31,0.26,0.46,0.36
						c7.16,5.72,15.29,10.13,24,12.92c0.27,0.09,0.57,0.18,0.84,0.26c1.9,0.6,3.85,1.11,5.8,1.53c0.42,0.09,0.84,0.18,1.24,0.29
						c0.04,0,0.05,0,0.07,0.02c46.57,10.64,62.34,38.24,66.45,49.63C639.75,2307.38,637.41,2311.1,633.84,2311.77z" class="color37424c svgShape"></path><path fill="#e1e3e8" d="M540.98,2251.68c0.11,1.49-1.02,2.81-2.53,2.93h-0.29c-1.39-0.05-2.53-1.13-2.64-2.53l-0.98-12.9
							l-0.38-5.18l1.17,1.09c1.39,1.29,2.81,2.52,4.27,3.7c0.15,0.13,0.31,0.26,0.46,0.36L540.98,2251.68z" class="colore1e3e8 svgShape"></path><path fill="#e1e3e8" d="M539.57 2238.79l-5.05.38-12.89.98c-.11.02-.22.02-.31.02-1.37-.05-2.52-1.13-2.62-2.53-.13-1.49 1-2.81 2.52-2.93l12.65-.97.27.26 1.17 1.09C536.69 2236.39 538.11 2237.61 539.57 2238.79zM571.98 2254.18l5.96 11.43c.69 1.33.18 2.99-1.17 3.68-.26.13-.51.22-.78.27-1.15.2-2.33-.35-2.9-1.44l-5.98-11.46-2.24-4.32c1.9.6 3.85 1.11 5.8 1.53.42.09.84.18 1.24.29L571.98 2254.18z" class="colore1e3e8 svgShape"></path><path fill="#e1e3e8" d="M571.91,2254.16l-4.79,2.5l-11.48,5.98c-0.26,0.13-0.51,0.22-0.78,0.27c-1.15,0.2-2.33-0.35-2.9-1.44
							c-0.71-1.33-0.18-2.99,1.15-3.68l10.94-5.7c0.27,0.09,0.57,0.18,0.84,0.26c1.9,0.6,3.85,1.11,5.8,1.53
							C571.09,2253.96,571.51,2254.05,571.91,2254.16z" class="colore1e3e8 svgShape"></path><rect width="134.35" height="87.15" x="264.57" y="760.28" fill="#f7c19b" transform="rotate(-80.131 331.74 803.855)" class="colorf7c19b svgShape"></rect><path fill="#f7c19b" d="M367.52,609.38l50.11,19.45c0,0,62.68,141.99-55.8,155.38c0,0-53-6.86-68.08-55.2l-2.68-86.93
				L367.52,609.38z" class="colorf7c19b svgShape"></path><path fill="#333333" d="M293.34,770.18l17.52-37.04c0,0-15.79-17.51-5.71-34.67c4.56-7.76,14.05-11.86,22.38-8.45
				c7.08,2.9,11.25,14.93,12.7,22.81l10.29-1.86c0,0-6.45-105.01,68.54-78.69c0,0,22.15-9.11,8.27-32.45
				c0,0,17.81-34.97-35.52-29.93c0,0-15.25-18.31-51.08,3.59c0,0-50.07-40.9-78.06,28.72c0,0-63.84,52.25,1.3,122.18
				c2.93,3.15,6.17,5.99,9.5,8.71C277.99,736.79,290.35,752.08,293.34,770.18z" class="color333 svgShape"></path><polygon fill="#37424c" points="441.3 1276.21 491.58 1286.28 532.47 2186.47 417.44 2186.47 333.69 1479.85 265.6 2186.47 154.21 2186.47 173.81 1286.28 311.43 1272.03" class="color37424c svgShape"></polygon><path fill="#ecf0f1" d="M314.87 1091.67l-149.43 22.58c-2.65-30.29-5.92-59.5-9.85-87l117.72-23.7L314.87 1091.67zM510.08 1025.36c-7.56 52.3-12.7 110.84-15.65 171.27-1.05 21.17-1.83 42.56-2.35 64-.21 8.52-.37 17.06-.5 25.58-.15 9.54-7.02 17.61-16.43 19.21-24.69 4.19-75.95 11.05-142.46 10v-479.5l7.36 7.36c1.59-1.28 18.69-15.16 29.18-33.18l34.47 7.44 88.46 19.13c20.65 4.43 39.74 13.92 55.63 27.44 10.86 9.24 8.24 22.12 11.81 35.93v108.4c0 0 14.07 119.33-78.06 162.4" class="colorecf0f1 svgShape"></path><path fill="#e1e3e8" d="M339.95,843.38l16.37,16.37l7.06,7.06c30.6-29.51,40.52-49.11,40.52-49.11l-0.18-0.16l-27.61-23.53
			c-1.41,5.56-3.9,10.99-6.87,16.08c-10.49,18.02-27.59,31.91-29.18,33.18C339.99,843.35,339.95,843.38,339.95,843.38z" class="colore1e3e8 svgShape"></path><path fill="#ecf0f1" d="M164.15,1302.78c-0.13-8.55,3.61-161.77,1.29-188.53l149.43-22.58l-41.56-88.12l-117.72,23.7
			c-0.1-0.64,0,0,0,0c3.93,27.5,7.19,56.72,9.85,87l-68.42,5.51c-52.88,4.5-89.09-52.35-63.74-96.81c4.8-9.57,9.6-19.13,14.4-28.7
			l52.27-111.77c18.32-23.37,44.27-39.57,73.28-45.8l88.46-19.14l34.47-7.45c10.49,18.04,27.61,31.92,29.19,33.19l7.37-7.37v479.48
			C266.22,1316.44,188.85,1306.96,164.15,1302.78" class="colorecf0f1 svgShape"></path><path fill="#e1e3e8" d="M325.45,843.38l-16.37,16.37l-7.06,7.06c-30.6-29.51-40.52-49.11-40.52-49.11l0.18-0.16l27.28-23.53
			c1.41,5.56,4.23,10.99,7.19,16.08c10.49,18.02,27.59,31.91,29.18,33.18C325.41,843.35,325.45,843.38,325.45,843.38z" class="colore1e3e8 svgShape"></path><polygon fill="#fa5669" points="290.16 1208.8 332.7 1272.03 375.24 1208.8 346.95 869.13 356.32 859.75 356.42 859.65 332.7 835.92 308.97 859.65 309.08 859.75 318.44 869.13" class="colorfa5669 svgShape"></polygon><rect width="303.45" height="20.79" x="384.81" y="1082.94" fill="#808ec7" class="color808ec7 svgShape"></rect><rect width="149.58" height="20.79" x="235.23" y="1082.94" fill="#6d7cb9" class="color6d7cb9 svgShape"></rect><polygon fill="#ced5fc" points="688.25 1082.94 384.8 1082.94 472.25 885.57 775.7 885.57" class="colorced5fc svgShape"></polygon><ellipse cx="580.24" cy="984.26" fill="#ffffff" rx="29.01" ry="25.04" transform="rotate(-45.001 580.235 984.27)" class="colorfff svgShape"></ellipse><g fill="#000000" class="color000 svgShape"><path fill="#ecf0f1" d="M277.26,1158.53l-193.8-38.97c7.61-29.43,59.68-47.69,65.16-74.93l118.88,16.95L277.26,1158.53z" class="colorecf0f1 svgShape"></path><path fill="#e1e3e8" d="M277.26,1158.53c-1.79-32.44-4.72-64.8-7.97-97.12l-0.14-1.41l-1.39-0.19c-11-1.5-33.16-4.38-44.17-5.71
				c-14.75-1.78-29.51-3.41-44.31-4.77c14.61,2.72,29.25,5.18,43.93,7.48c10.97,1.73,33.07,4.99,44.06,6.54l-1.54-1.6
				C268.97,1094.09,272.55,1126.39,277.26,1158.53L277.26,1158.53z" class="colore1e3e8 svgShape"></path><path fill="#f7c19b" d="M363.45,1106.26c-0.79,2.23-2.56,4-4.94,4.67l-14.72,4.28c4.3-1.24,8.73,1.58,9.35,6.02
				c0.2,1.22,0.03,2.41-0.36,3.52c-0.8,2.27-2.66,4.12-5.18,4.74c0,0-24.8,19.44-71.55,15.87l-5.82-74.39
				c6.21-0.3,21.59-4.54,24.7-9.96l8.57-14.76c2.36-4.02,7.55-5.41,11.61-3.04c3.29,1.9,4.88,5.8,3.88,9.51l-5.53,20.63l40.84-11.47
				c4.88-1.4,9.75,2.1,10.06,7.11c0.09,1.07-0.09,2.16-0.43,3.13c-0.77,2.18-2.5,3.97-4.77,4.78l-2.46,0.9
				c4.43-1.61,9.37,0.66,11.04,5.06c0.76,1.99,0.73,4.12,0.08,5.97c-0.89,2.5-2.93,4.6-5.67,5.4l-7.84,2.39
				c4.21-1.28,8.5,1.34,9.38,5.62C364,1103.69,363.88,1105.06,363.45,1106.26z" class="colorf7c19b svgShape"></path></g><path fill="#f7c19b" d="M714.05,1018.72c0,0-20.5-9.82-36.03,9.99c-6.64,8.47-9.92,19.18-8.76,29.88
			c0.96,8.78,4.85,18.85,16.69,23.52l0.5,0.24c3.09,1.47,6.78,0.08,8.14-3.06l22.74-52.57
			C718.68,1023.61,717.2,1019.99,714.05,1018.72L714.05,1018.72z" class="colorf7c19b svgShape"></path></g></svg></g></svg>