<svg id="SvgjsSvg1075" width="550" height="550" xmlns="http://www.w3.org/2000/svg" version="1.1" xmlns:xlink="http://www.w3.org/1999/xlink" xmlns:svgjs="http://svgjs.com/svgjs"><defs id="SvgjsDefs1076"></defs><g id="SvgjsG1077"><svg xmlns="http://www.w3.org/2000/svg" enable-background="new 0 0 2000 2000" viewBox="0 0 2000 2000" width="550" height="550"><rect width="2000" height="2000" fill="#ffffff" fill-rule="evenodd" clip-rule="evenodd" display="none" class="colorfff svgShape"></rect><path fill="#d5f0ff" d="M162.7,621c-53.8,190,164.2,593.4,571.9,758.4c407.8,165,812.8,93.1,904.7-160.5    c37.4-103.8-73.1-221.7-48.3-336.4c18.1-108.6,342.1-312.2,230.1-551.5C1709.2,91.6,1130,23.7,916.6,170    C703,316.5,629.9,354.3,577.6,373.9C501.9,405.5,216.3,431.2,162.7,621L162.7,621z" opacity=".5" class="colord5f0ff svgShape"></path><ellipse cx="999.6" cy="1850.1" fill="#dfe6ff" fill-rule="evenodd" clip-rule="evenodd" rx="806.8" ry="56.6" class="colordfe6ff svgShape"></ellipse><polygon fill="#84b2fe" fill-rule="evenodd" points="1565.3 117.6 1837.3 174.9 1778 214.7" clip-rule="evenodd" class="color84b2fe svgShape"></polygon><polygon fill="#2c7efe" fill-rule="evenodd" points="1564.8 119.4 1778 214.7 1754.3 281.6" clip-rule="evenodd" class="color2c7efe svgShape"></polygon><polygon fill="#0643a3" fill-rule="evenodd" points="1703.6 238.4 1754.3 281.6 1746.4 234.4" clip-rule="evenodd" class="color0643a3 svgShape"></polygon><polygon fill="#84b2fe" fill-rule="evenodd" points="1671 274.2 1745.6 233.5 1560.6 119.4" clip-rule="evenodd" class="color84b2fe svgShape"></polygon><path fill="#84b2fe" d="M1771.3,298.9l-4,3l-6.2-7.9l4-3L1771.3,298.9z M1277.1,946l-0.5-4.9l1-0.2h1.7l1.7-0.2h1.7     h2h2l-0.2,4.9h-1.7h-2h-1.5l-1.7,0.2h-1.5L1277.1,946z M1301.6,945.7v-4.9h2.2h4.7l2.7-0.2l0.2,4.9l-3,0.2h-4.7H1301.6z      M1326.3,945l-0.2-4.9l1.5-0.2l4.7-0.2l3.7-0.2l0.2,4.9l-3.5,0.2l-4.9,0.2L1326.3,945z M1351,942.8l-0.5-4.9h1l4.7-0.5l4.2-0.7     l0.5,4.9l-4.2,0.5l-4.7,0.7H1351z M1375.7,939.6l-0.7-4.9l0.5-0.2l4.7-0.7l4.4-0.7l1,4.9l-4.7,0.7l-4.7,0.7L1375.7,939.6z      M1400.1,934.9l-1.2-4.9h0.2l4.9-1l4.4-1l1.2,4.7l-4.7,1.2L1400.1,934.9L1400.1,934.9z M1424.1,929.2l-1.2-4.9l0,0l4.7-1.2     l4.7-1.2h0.2l1.2,4.7l0,0l-4.7,1.2L1424.1,929.2L1424.1,929.2z M1448,922l-1.5-4.7l4.4-1.2l4.7-1.7h0.2l1.5,4.7h-0.2l-4.7,1.7     L1448,922z M1471.5,914.1l-1.7-4.7l4.2-1.7l4.7-1.7h0.2l1.7,4.4l-0.2,0.2l-4.4,1.7L1471.5,914.1z M1494.5,904.7l-2-4.4l4.2-1.7     l4.4-2l0.5-0.2l2,4.4l-0.5,0.2l-4.4,2L1494.5,904.7z M1517.2,894.4l-2.2-4.4l3.7-1.7l4.2-2.2l0.7-0.2l2.2,4.2l-0.5,0.5l-4.4,2.2     L1517.2,894.4z M1539.2,883l-2.5-4.4l3.2-1.7l4.2-2.5l1-0.5l2.5,4.2l-1,0.5l-4.2,2.5L1539.2,883z M1560.4,870.2l-2.7-4l3-2l4-2.7     l1.5-0.7l2.7,4l-1.5,1l-4,2.7L1560.4,870.2z M1580.9,856.3l-2.7-4l2.2-1.7l3.7-2.7l2-1.2l3,3.7l-2,1.5l-3.7,3L1580.9,856.3z      M1600.7,841.3l-3-3.7l1.5-1.2l3.7-3l2.2-2.2l3.2,4l-2.2,2l-3.7,3L1600.7,841.3z M1619.7,825.2l-3.5-3.7l0.7-0.7l3.5-3.2l3-2.7     l3.5,3.5l-3,3l-3.5,3.2L1619.7,825.2z M1637.2,807.7l-3.5-3.5l3-3.2l3.2-3.5l0.5-0.5l3.7,3.2l-0.5,0.5l-3.2,3.5L1637.2,807.7z      M1653.8,789.2l-3.7-3.2l2-2.5l2.7-3.7l1.2-1.5l4,3l-1.2,1.7l-3,3.5L1653.8,789.2z M1668.8,769.1l-4-2.7l1-1.5l2.5-3.7l2-3     l4.2,2.7l-2,3l-2.7,4L1668.8,769.1z M1682.4,748.4l-4.2-2.5v-0.2l2.2-4l2.2-4l0.2-0.5l4.4,2.5l-0.2,0.2l-2.2,4.2l-2.5,4V748.4z      M1694,726.4l-4.4-2.2l1.5-3l2-4.2l0.7-1.7l4.4,2l-0.7,1.7l-2,4.4L1694,726.4z M1703.9,703.5l-4.4-1.7l0.5-1.7l1.7-4.2l1-3.2     l4.7,1.5l-1,3.2l-1.7,4.4L1703.9,703.5z M1711.8,680l-4.7-1.5V678l0.7-2.2l0.5-2.2l0.7-2.5l0.5-2l4.7,1.2l-0.5,2l-0.5,2.5     l-0.7,2.2l-0.5,2.2L1711.8,680z M1717.5,655.8l-4.7-1l0.2-2l0.5-2.5l0.2-2.2l0.5-2.5v-0.5l4.9,0.7v0.5l-0.5,2.5l-0.5,2.5     l-0.2,2.2L1717.5,655.8z M1721.2,631.1l-4.9-0.5v-1.5l0.2-2.5l0.2-2.5l0.2-2.5v-1l4.9,0.5v1l-0.2,2.5l-0.2,2.5l-0.2,2.5V631.1z      M1722.4,606.1h-4.9v-1.5v-2.7v-2.2v-2.5v-1h4.9v0.7v2.5v2.5v2.7V606.1z M1721.7,581.2l-4.9,0.5v-1.5l-0.2-2.5l-0.2-2.2l-0.2-2.5     v-1.2l4.9-0.5v1.2l0.2,2.5l0.2,2.5l0.2,2.5V581.2z M1718.7,556.5l-4.9,1v-0.7l-0.5-2.5l-0.5-2.2l-0.2-2.2l-0.5-2l4.7-1.2l0.5,2.2     l0.5,2.2l0.5,2.5l0.5,2.2V556.5z M1713.3,532.3l-4.7,1.2l-0.5-1.5l-0.7-2.2l-0.5-2l-0.7-2.2l-0.5-1.5l4.7-1.5l0.5,1.5l0.7,2.2     l0.5,2l0.7,2.2L1713.3,532.3z M1705.1,508.6l-4.7,2l-0.5-1.5l-1-2l-0.7-2l-1-1.7l-0.7-1.7l4.4-2.2l0.7,1.7l1,2l1,2l0.7,2     L1705.1,508.6z M1693.8,486.4l-4.2,2.5l-0.2-0.2l-1-1.7l-1.2-1.7l-1-1.7l-1.2-1.5l-0.7-1.2l4-2.7l0.7,1l1.2,1.7l1.2,1.7l1.2,1.7     l1,2L1693.8,486.4z M1678.7,466.1l-3.7,3.2l-1.2-1.2l-1.2-1.5l-1.5-1.5l-1.2-1.2l-1.5-1.5l0,0l3.5-3.5l0,0l1.5,1.2l1.2,1.5     l1.5,1.5l1.5,1.5L1678.7,466.1z M1659.9,449.3l-2.7,4l-0.5-0.2l-1.7-1l-1.5-1l-1.5-1l-1.7-1l-1.2-0.7l2.2-4.4l1.5,1l1.7,1l1.7,1     l1.5,1l1.7,1.2L1659.9,449.3z M1637.5,437.7l-1.5,4.7l-1-0.5l-1.7-0.5l-1.7-0.5l-2-0.5l-1.7-0.5l-1.2-0.5l1.2-4.7l1.2,0.2l2,0.5     l2,0.7l1.7,0.5l2,0.7L1637.5,437.7z M1612.8,432.3l-0.2,4.9h-0.2h-2l-2-0.2h-2h-2.2h-1.2l-0.2-4.9h1.5h2.2h2.2l2,0.2H1612.8     L1612.8,432.3z M1587.6,433.3l0.7,4.9h-1.2l-2.5,0.5l-2.2,0.5l-2.2,0.5l-1.2,0.2l-1.2-4.9l1.5-0.2l2.2-0.5l2.5-0.5l2.2-0.2     L1587.6,433.3z M1563.1,439.2l1.7,4.7l-1.2,0.2l-2.2,1l-2.5,0.7l-2.5,1l-0.7,0.2l-2-4.4l0.7-0.5l2.7-0.7l2.5-1l2.5-1     L1563.1,439.2z M1540.2,449.1l2.5,4.2l-0.2,0.2l-1.5,0.7l-1.5,1l-1.5,1l-1.5,1l-1.5,1l-0.5,0.2l-3-4l0.7-0.5l1.5-1l1.5-1l1.5-1     l1.7-1l1.5-1H1540.2z M1519.9,464.1l3.5,3.5v0.2l-1.2,1l-1.2,1.2l-1.2,1.2l-1,1.2l-1,1.2l-1,1l-3.7-3.2l0.7-1l1.2-1.2l1.2-1.5     l1.2-1.2l1.2-1.2L1519.9,464.1L1519.9,464.1z M1504.1,483.9l4.2,2.5l-0.2,0.5l-1,1.5l-0.7,1.2l-0.7,1.5l-0.7,1.5l-0.7,1.2l-0.5,1     l-4.4-2.2l0.5-1l0.7-1.5l0.7-1.5l1-1.5l0.7-1.5l1-1.2L1504.1,483.9z M1493.2,506.6l4.7,1.5l-0.2,0.5l-0.5,1.7l-0.5,1.5l-0.5,1.5     l-0.5,1.5l-0.2,1.7l-0.2,1l-4.9-1.2l0.2-1.2l0.5-1.5l0.5-1.7l0.5-1.5l0.5-1.7l0.5-1.5L1493.2,506.6z M1487.3,531.1l4.9,0.7v0.2     l-0.5,3.2l-0.2,3.2l-0.2,3l-4.9-0.5l0.2-3l0.2-3.2l0.5-3.5V531.1z M1486.1,556l4.9-0.2v1.5v3.2l0.2,3l0.2,2.2l-4.9,0.5l-0.2-2.2     v-3.2l-0.2-3.2V556z M1489,581l4.9-1l0.2,1.2l0.5,2.7l0.7,3l0.7,2.5l-4.7,1.5l-0.7-2.7l-0.7-3l-0.7-3L1489,581z M1496.9,604.9     l4.4-2.2l1,2l0.5,1.2l0.7,1l0.5,1.2l0.7,1l0.5,1.2l0.7,1l-4.2,2.5l-0.7-1l-0.7-1.2l-0.5-1.2l-0.7-1l-0.7-1.2l-0.5-1.2     L1496.9,604.9z M1511,625.9l3.7-3.2l0.7,0.7l1,1.2l1,1.2l1.2,1l1.2,1.2l1,1l0.5,0.5l-3.2,3.7l-0.5-0.5l-1.2-1.2l-1.2-1.2     l-1.2-1.2l-1.2-1.2l-1-1.2L1511,625.9z M1529.8,642.7l2.7-4l0.7,0.5l1.5,1l1.2,1l1.2,0.7l1.5,1l1.2,0.7l0.7,0.5l-2.5,4.2     l-0.7-0.5l-1.5-1l-1.2-0.7l-1.5-1l-1.5-1l-1.2-0.7L1529.8,642.7z M1551.5,655.3l2-4.4l0.7,0.2l1.5,0.7l1.5,0.5l1.5,0.7l1.7,0.5     l1.5,0.7l0.7,0.2l-1.7,4.4l-0.7-0.2l-1.7-0.5l-1.5-0.7l-1.5-0.5l-1.7-0.7l-1.5-0.7L1551.5,655.3z M1575.2,663.7l1.2-4.9l1.2,0.5     l3.2,0.7l3.5,0.7l1.5,0.2l-0.7,4.9l-1.7-0.5l-3.5-0.7l-3.5-0.7L1575.2,663.7z M1599.9,668.1l0.5-4.9l1,0.2l3.5,0.2l3.5,0.2     l1.7,0.2l-0.2,4.9l-1.7-0.2l-3.7-0.2l-3.5-0.2L1599.9,668.1z M1624.9,669.6v-4.9h1.2l3.7-0.2h3.5h1.2l0.2,4.9h-1.2h-3.7l-3.7,0.2     H1624.9z M1649.8,668.1l-0.7-4.9l2.5-0.2l3.7-0.2l3.7-0.5l0.7,4.7l-3.7,0.5l-3.7,0.5L1649.8,668.1z M1674.3,664.4l-1-4.7h0.5     l3.7-0.7l3.5-1l2-0.2l1.2,4.7l-2,0.5l-3.7,0.7l-3.7,0.7H1674.3z M1698.5,658.7l-1.2-4.7l2-0.7l3.7-1l3.5-1.2h0.2l1.5,4.7h-0.2     l-3.5,1.2l-3.7,1L1698.5,658.7z M1722.2,650.8l-1.7-4.7l0.5-0.2l4-1.5l3.7-1.5l0.7-0.5l2,4.7l-0.7,0.2l-3.7,1.7l-4,1.5     L1722.2,650.8z M1744.9,640.7l-2.2-4.4l0.5-0.2l1.7-1l1.7-1l1.7-1l1.7-1l1-0.5l2.7,4.2l-1.2,0.5l-1.7,1.2l-1.7,1l-1.7,0.7l-1.7,1     L1744.9,640.7z M1766.4,627.6l-3-4l1.5-1l1.5-1l1.5-1.2l1.5-1l1.5-1.2l0.5-0.2l3,3.7l-0.2,0.5l-1.7,1.2l-1.5,1l-1.5,1.2l-1.7,1.2     L1766.4,627.6z M1785.9,612.1l-3.5-3.7l1.2-1l1.5-1.2l1.2-1.2l1.2-1.5l1.5-1.2l0.5-0.5l3.5,3.5l-0.5,0.5l-1.2,1.2l-1.5,1.5     l-1.2,1.2l-1.5,1.5L1785.9,612.1z M1803.2,594l-4-3.2l2-2.2l2.2-3l1.7-2.5l4.2,3l-2,2.5l-2.2,3L1803.2,594z M1817.5,573.5     l-4.2-2.5l0.2-0.5l2-3.2l1.7-3l1-1.7l4.4,2.2l-1,1.7l-2,3.5l-2,3.2L1817.5,573.5z M1829.1,551.3l-4.4-2l0.5-1.5l1.5-3.2l1.2-3.5     l0.2-0.7l4.7,1.5l-0.2,1l-1.2,3.5l-1.5,3.5L1829.1,551.3z M1837.5,527.9l-4.7-1.5l0.7-3l1-3.7l0.7-2.7l4.7,1.2l-0.7,2.7l-0.7,3.7     L1837.5,527.9z M1842.9,503.4l-4.9-0.7l0.2-1.5l0.5-3.7l0.5-4V493l4.9,0.5v0.5l-0.5,4l-0.5,4L1842.9,503.4z M1845.2,478.5h-4.9     l0.2-0.5v-4v-4v-1.5h4.9v1.5v4v4.2L1845.2,478.5z M1844.9,453.5l-4.9,0.5v-2.5l-0.5-3.2l-0.2-3v-1.2l4.7-0.5l0.2,1.2l0.2,3     l0.2,3.2L1844.9,453.5z M1841.7,428.8l-4.7,1l-0.5-2.2l-0.7-3l-0.5-2.7l-0.5-1.7l4.7-1.2l0.5,1.7l0.7,3l0.5,3L1841.7,428.8z      M1835.3,404.6l-4.7,1.7l-0.2-0.7l-0.7-2.7l-1-2.7l-1-2.5l-0.2-0.7l4.4-1.7l0.2,0.5l1,2.7l1,2.7l1,2.7L1835.3,404.6z      M1825.9,381.4l-4.4,2.2l-0.5-1.2l-1.2-2.5l-1.2-2.5l-1.2-2.5h-0.2l4.4-2.5v0.2l1.2,2.5l1.5,2.5l1.2,2.5L1825.9,381.4z      M1814,359.4l-4.2,2.7l-1-1.7l-1.5-2.5l-1.5-2.2l-1.2-2l4.2-2.7l1.2,2l1.5,2.5l1.5,2.5L1814,359.4z M1800.7,338.7l-4.2,2.7     l-3.2-4.7l-2.5-3.2l4.2-3l2.2,3.5L1800.7,338.7z M1786.1,318.7l-4,3l-2.7-3.7l-3.2-4.2l4-3l3.2,4.2L1786.1,318.7z" class="color84b2fe svgShape"></path><path fill="#84b2fe" d="M676.5,324.7h646.1c68.8,0,125.1,56.3,125.1,125.1v1261.7c0,68.8-56.2,125.1-125.1,125.1      H676.5c-68.8,0-125.1-56.2-125.1-125.1V449.8C551.5,381,607.8,324.7,676.5,324.7L676.5,324.7z" class="color84b2fe svgShape"></path><path fill="#ffffff" d="M679.8 1664h639.7c37.5 0 67.9-31.1 67.9-69.5V544.5c0-38.4-30.4-69.5-67.9-69.5H679.8c-37.5 0-67.9 31.1-67.9 69.5v1049.9C611.8 1632.9 642.2 1664 679.8 1664zM931 1705.4h137.1c22.2 0 40.4 18.2 40.4 40.4l0 0c0 22.2-18.2 40.3-40.4 40.3H931c-22.2 0-40.3-18.2-40.3-40.3l0 0C890.7 1723.5 908.9 1705.4 931 1705.4L931 1705.4z" class="colorfff svgShape"></path><path fill="#15489d" d="M932.5,1716.9h134.1c15.9,0,28.8,13,28.8,28.8l0,0c0,15.9-13,28.8-28.8,28.8H932.5       c-15.9,0-28.8-12.9-28.8-28.8l0,0C903.7,1729.9,916.7,1716.9,932.5,1716.9L932.5,1716.9z" class="color15489d svgShape"></path><path fill="#0643a3" d="M870.6,392.7h257.9c11.6,0,21,6.9,21,15.4l0,0c0,8.5-9.5,15.4-21,15.4H870.6      c-11.6,0-21-6.9-21-15.4l0,0C849.6,399.7,859.1,392.7,870.6,392.7L870.6,392.7z" class="color0643a3 svgShape"></path><path fill="#62cbec" fill-rule="evenodd" d="M1172.9,1560.4H826.2c-17.7,0-32.1-14.4-32.1-32.1v-55.7c0-17.7,14.4-32.1,32.1-32.1h346.7      c17.7,0,32.1,14.4,32.1,32.1v55.7C1205.1,1546,1190.7,1560.4,1172.9,1560.4z" clip-rule="evenodd" class="color62cbec svgShape"></path><path fill="#2c7efe" fill-rule="evenodd" d="M715 1173.2h569.1c16.6 0 30-11.3 30-25.2v-42.1c0-13.9-13.4-25.2-30-25.2H715c-16.6 0-30 11.3-30 25.2v42.1C685.1 1161.9 698.5 1173.2 715 1173.2zM715 1363.1h569.1c16.6 0 30-11.3 30-25.2v-42.1c0-13.9-13.4-25.2-30-25.2H715c-16.6 0-30 11.3-30 25.2v42.1C685.1 1351.8 698.5 1363.1 715 1363.1z" clip-rule="evenodd" class="color2c7efe svgShape"></path><ellipse cx="757.6" cy="1128.1" fill="#ffffff" fill-rule="evenodd" clip-rule="evenodd" rx="9.5" ry="9.1" class="colorfff svgShape"></ellipse><ellipse cx="784.6" cy="1128.1" fill="#ffffff" fill-rule="evenodd" clip-rule="evenodd" rx="9.5" ry="9.1" class="colorfff svgShape"></ellipse><ellipse cx="815.2" cy="1128.1" fill="#ffffff" fill-rule="evenodd" clip-rule="evenodd" rx="9.5" ry="9.1" class="colorfff svgShape"></ellipse><ellipse cx="842.2" cy="1128.1" fill="#ffffff" fill-rule="evenodd" clip-rule="evenodd" rx="9.5" ry="9.1" class="colorfff svgShape"></ellipse><ellipse cx="872.7" cy="1128.1" fill="#ffffff" fill-rule="evenodd" clip-rule="evenodd" rx="9.5" ry="9.1" class="colorfff svgShape"></ellipse><ellipse cx="899.7" cy="1128.1" fill="#ffffff" fill-rule="evenodd" clip-rule="evenodd" rx="9.5" ry="9.1" class="colorfff svgShape"></ellipse><ellipse cx="930.4" cy="1128.1" fill="#ffffff" fill-rule="evenodd" clip-rule="evenodd" rx="9.5" ry="9.1" class="colorfff svgShape"></ellipse><ellipse cx="957.4" cy="1128.1" fill="#ffffff" fill-rule="evenodd" clip-rule="evenodd" rx="9.5" ry="9.1" class="colorfff svgShape"></ellipse><ellipse cx="757.6" cy="1319.7" fill="#ffffff" fill-rule="evenodd" clip-rule="evenodd" rx="9.5" ry="9.1" class="colorfff svgShape"></ellipse><ellipse cx="784.6" cy="1319.7" fill="#ffffff" fill-rule="evenodd" clip-rule="evenodd" rx="9.5" ry="9.1" class="colorfff svgShape"></ellipse><ellipse cx="815.2" cy="1319.7" fill="#ffffff" fill-rule="evenodd" clip-rule="evenodd" rx="9.5" ry="9.1" class="colorfff svgShape"></ellipse><ellipse cx="842.2" cy="1319.7" fill="#ffffff" fill-rule="evenodd" clip-rule="evenodd" rx="9.5" ry="9.1" class="colorfff svgShape"></ellipse><ellipse cx="872.7" cy="1319.7" fill="#ffffff" fill-rule="evenodd" clip-rule="evenodd" rx="9.5" ry="9.1" class="colorfff svgShape"></ellipse><ellipse cx="899.7" cy="1319.7" fill="#ffffff" fill-rule="evenodd" clip-rule="evenodd" rx="9.5" ry="9.1" class="colorfff svgShape"></ellipse><ellipse cx="930.4" cy="1319.7" fill="#ffffff" fill-rule="evenodd" clip-rule="evenodd" rx="9.5" ry="9.1" class="colorfff svgShape"></ellipse><ellipse cx="957.4" cy="1319.7" fill="#ffffff" fill-rule="evenodd" clip-rule="evenodd" rx="9.5" ry="9.1" class="colorfff svgShape"></ellipse><g fill="#000000" class="color000 svgShape"><path fill="#ffffff" d="M871.3 1526.4c-4.1 0-8-.6-11.8-1.8-3.7-1.2-6.7-2.7-8.9-4.5l3.4-7.6c2.1 1.6 4.7 3 7.8 4.1 3.1 1.1 6.3 1.6 9.5 1.6 2.7 0 5-.3 6.7-.9 1.7-.6 2.9-1.4 3.7-2.4.8-1 1.2-2.2 1.2-3.5 0-1.6-.6-2.9-1.7-3.9-1.1-1-2.6-1.7-4.5-2.3-1.8-.6-3.8-1.1-6.1-1.6-2.2-.5-4.4-1.1-6.7-1.8-2.2-.7-4.2-1.5-6.1-2.6-1.8-1.1-3.3-2.5-4.5-4.3-1.1-1.8-1.7-4.1-1.7-6.9 0-2.8.8-5.5 2.3-7.8 1.5-2.4 3.8-4.3 7-5.7 3.1-1.4 7.1-2.1 11.9-2.1 3.1 0 6.3.4 9.4 1.2 3.1.8 5.8 1.9 8.1 3.4l-3.1 7.6c-2.3-1.4-4.8-2.4-7.3-3.1-2.5-.7-4.9-1-7.2-1-2.7 0-4.9.3-6.6 1-1.7.6-2.9 1.5-3.7 2.5-.8 1-1.2 2.2-1.2 3.6 0 1.6.6 2.9 1.7 3.9 1.1 1 2.6 1.7 4.4 2.3 1.8.5 3.9 1.1 6.1 1.6 2.2.5 4.5 1.1 6.7 1.8 2.2.6 4.2 1.5 6.1 2.5 1.8 1 3.3 2.5 4.4 4.3 1.1 1.8 1.7 4.1 1.7 6.8 0 2.8-.8 5.4-2.3 7.8-1.5 2.4-3.9 4.3-7 5.7C880.1 1525.7 876.1 1526.4 871.3 1526.4zM906 1479.1c-1.7 0-3.2-.5-4.3-1.6-1.1-1.1-1.7-2.4-1.7-4 0-1.6.6-2.9 1.7-4 1.1-1.1 2.6-1.6 4.3-1.6 1.7 0 3.2.5 4.3 1.5 1.1 1 1.7 2.3 1.7 3.9 0 1.6-.5 3-1.6 4.2C909.3 1478.5 907.8 1479.1 906 1479.1zM901.3 1525.7v-40h9.4v40H901.3zM939.9 1523.9c-3.8 0-7.2-.8-10.3-2.4-3.1-1.6-5.5-3.9-7.3-6.8-1.8-2.9-2.7-6.3-2.7-10.2 0-3.8.9-7.2 2.7-10.1 1.8-2.9 4.2-5.1 7.3-6.7 3.1-1.6 6.5-2.4 10.3-2.4 3.4 0 6.4.7 9.1 2 2.7 1.3 4.9 3.4 6.5 6.3 1.6 2.8 2.4 6.5 2.4 10.9 0 4.4-.8 8.1-2.4 11-1.6 2.9-3.8 5-6.5 6.4C946.3 1523.2 943.3 1523.9 939.9 1523.9zM941.1 1540.7c-3.7 0-7.3-.5-10.8-1.5-3.5-1-6.4-2.4-8.7-4.2l4.2-7c1.7 1.4 4 2.6 6.6 3.5 2.7.9 5.4 1.3 8.1 1.3 4.4 0 7.6-1 9.7-3 2-2 3.1-5.1 3.1-9.1v-7.1l.7-9.1-.3-9.1v-9.7h8.9v33.9c0 7.2-1.8 12.6-5.5 16C953.4 1539 948.1 1540.7 941.1 1540.7zM941.3 1515.9c2.3 0 4.4-.5 6.3-1.5 1.8-1 3.3-2.3 4.3-4 1-1.7 1.5-3.7 1.5-6 0-2.2-.5-4.2-1.5-6-1-1.7-2.5-3-4.3-4-1.8-.9-3.9-1.4-6.3-1.4-2.3 0-4.5.5-6.3 1.4-1.9.9-3.3 2.2-4.3 4-1 1.7-1.5 3.7-1.5 6 0 2.2.5 4.2 1.5 6 1 1.7 2.5 3.1 4.3 4C936.8 1515.4 939 1515.9 941.3 1515.9zM997.6 1485.2c3.2 0 6.1.6 8.6 1.9 2.5 1.2 4.5 3.2 6 5.7 1.4 2.6 2.2 5.9 2.2 9.9v22.9h-9.4v-21.7c0-3.5-.8-6.2-2.5-7.9-1.7-1.7-4-2.6-7-2.6-2.2 0-4.1.4-5.8 1.3-1.7.9-3 2.2-3.9 4-.9 1.8-1.4 4-1.4 6.7v20.2h-9.4v-40h8.9v10.8l-1.6-3.3c1.4-2.5 3.4-4.5 6.1-5.9C991.1 1485.9 994.1 1485.2 997.6 1485.2zM1070.4 1526.4c-7.2 0-12.8-2-16.9-6.1-4.1-4-6.1-9.9-6.1-17.5v-29.6h9.7v29.2c0 5.4 1.2 9.3 3.5 11.8 2.3 2.4 5.6 3.7 9.9 3.7 4.2 0 7.5-1.2 9.8-3.7 2.3-2.4 3.4-6.4 3.4-11.8v-29.2h9.6v29.6c0 7.6-2 13.5-6.1 17.5C1083.1 1524.4 1077.5 1526.4 1070.4 1526.4zM1106 1540.2v-54.5h8.9v9.4l-.3 10.6.7 10.6v23.8H1106zM1128.2 1526.2c-3.2 0-6.2-.7-8.9-2.2-2.7-1.5-4.8-3.8-6.4-6.8-1.6-3-2.4-6.9-2.4-11.5 0-4.7.8-8.5 2.3-11.5 1.5-3 3.6-5.2 6.3-6.7 2.6-1.5 5.7-2.2 9.1-2.2 3.9 0 7.4.8 10.5 2.5 3 1.7 5.4 4.1 7.2 7.1 1.8 3 2.7 6.6 2.7 10.8 0 4.1-.9 7.8-2.7 10.8-1.8 3.1-4.2 5.5-7.2 7.2C1135.7 1525.3 1132.2 1526.2 1128.2 1526.2zM1127.2 1518.2c2.2 0 4.3-.5 6-1.5 1.8-1 3.2-2.4 4.2-4.3 1-1.9 1.6-4.1 1.6-6.7 0-2.6-.5-4.8-1.6-6.7-1-1.9-2.5-3.3-4.2-4.3-1.8-1-3.8-1.5-6-1.5-2.2 0-4.3.5-6.1 1.5-1.8 1-3.2 2.4-4.3 4.3-1 1.9-1.6 4.1-1.6 6.7 0 2.5.5 4.8 1.6 6.7 1 1.9 2.5 3.3 4.3 4.3C1122.9 1517.7 1124.9 1518.2 1127.2 1518.2z" class="colorfff svgShape"></path></g><g fill="#000000" class="color000 svgShape"><path fill="#62cbec" fill-rule="evenodd" d="M999.7,1028.8c132.7,0,240.9-108.3,240.9-241.1s-108.2-241.1-240.9-241.1      c-132.9,0-241.1,108.3-241.1,241.1S866.8,1028.8,999.7,1028.8L999.7,1028.8z" clip-rule="evenodd" class="color62cbec svgShape"></path><path fill="#ffffff" fill-rule="evenodd" d="M1041.7,825.9c64.2,15.9,114.3,67.3,128.5,132.1c-43.7,43.8-104,70.8-170.5,70.8      c-66.7,0-127-27-170.7-70.8c14.2-64.8,64.2-116.2,128.5-132.1c-25.7-14.7-43.1-42.3-43.1-74.2c0-47,38.1-85.3,85.3-85.3      c47,0,85.3,38.3,85.3,85.3C1084.9,783.5,1067.6,811.1,1041.7,825.9L1041.7,825.9z" clip-rule="evenodd" class="colorfff svgShape"></path></g><g fill="#000000" class="color000 svgShape"><path fill="#ffcdad" fill-rule="evenodd" d="M1221.4 1172.2l-42.9-42.7c-4.3-8-8.2-21.4-13-24-10.5-3.4-37.7-15.6-34.8-8.2.7 2.4 17 9 21.9 16.5-2.1 7.1-15.2 16.5-6.1 21.4l21.1 8.6c8.7 10 18.7 23 28.8 36.5L1221.4 1172.2zM1474.1 1767.8l-21.1 16.4c-7 24.7-21.5 40.4-33.3 60.1l59.8-27.8L1474.1 1767.8z" clip-rule="evenodd" class="colorffcdad svgShape"></path><path fill="#ffcdad" fill-rule="evenodd" d="M1448.8,1733.4l33.5-2.8l-4.1,53.9c-2.2,6.1-24.5,10.4-25.2-0.2L1448.8,1733.4z" clip-rule="evenodd" class="colorffcdad svgShape"></path><path fill="#153663" fill-rule="evenodd" d="M1363.5,1860.1c-21.5-16.7,60.6-0.9,110.2-72.4c2.1-3.6,4.6-3.3,4.8-0.3     c6.8,26.1,3.8,50.3,5.7,75.5l-4.9,0.7c-1.9-12.5-3.8-24.9-5.6-37.4c-6,14.4-33.1,32.5-44.5,33.4     C1419,1861.4,1389.2,1859.9,1363.5,1860.1L1363.5,1860.1z" clip-rule="evenodd" class="color153663 svgShape"></path><path fill="#ffcdad" fill-rule="evenodd" d="M1373.9,1775.8l-21.1,16.4c-7,24.7-21.5,40.4-33.3,60.2l59.8-27.8L1373.9,1775.8z" clip-rule="evenodd" class="colorffcdad svgShape"></path><path fill="#ffcdad" fill-rule="evenodd" d="M1348.5,1741.3l33.5-2.8l-4.1,53.9c-2.2,6.2-24.5,10.4-25.2-0.2L1348.5,1741.3z" clip-rule="evenodd" class="colorffcdad svgShape"></path><path fill="#153663" fill-rule="evenodd" d="M1263.3 1868c-21.5-16.7 60.6-.9 110.2-72.4 2.1-3.6 4.6-3.3 4.8-.3 6.8 26.1 3.8 50.3 5.7 75.5l-4.9.7c-1.9-12.5-3.8-24.9-5.6-37.4-6 14.4-33.1 32.5-44.5 33.4C1318.7 1869.3 1288.9 1867.8 1263.3 1868L1263.3 1868zM1434.8 1315l-98.8 97.3c-9.6 50-21.5 100.3-19.3 131.4l28.2 211.5c16.2-1.1 32.4-2.2 48.7-3.3l-3.2-202.6 21.6-73.3 37.5 276.1 50.5-1.7-17.9-331.9L1434.8 1315z" clip-rule="evenodd" class="color153663 svgShape"></path><path fill="#62cbec" fill-rule="evenodd" d="M1411.2,1215.7c8.7-22,17.4-44,26-66c34.2,32.5,89.8,66.5,102.7,97.6     c6.5,20.4-69.4,105.5-98.1,140.3c-4.4-10.8-8.2-18.4-12.6-29.3c25-33.1,49-64.2,66.7-100.6     C1472,1244.7,1435,1228.6,1411.2,1215.7L1411.2,1215.7z" clip-rule="evenodd" class="color62cbec svgShape"></path><path fill="#62cbec" fill-rule="evenodd" d="M1463.6,1179c-20.7-11.7-41.4-23.4-62-35.1c-18.9,7.3-49.4,12.4-56.6,21.9     c-73.9,75.4-16.5,108.4-143.2-17.5c-9.2,7-12.3,8.7-21.4,19.1c35.8,48.2,104.4,180.9,168.6,85.1c-3.2,65.8-19,118.1-22.3,183.8     c39.3,37.4,134,19.3,161.2,3.2C1484.4,1349.6,1467.1,1268.9,1463.6,1179L1463.6,1179z" clip-rule="evenodd" class="color62cbec svgShape"></path><path fill="#ffcdad" fill-rule="evenodd" d="M1428.5,1062.1l-72.5-3.7c-1.4,43.7,4.3,89.3,33.8,88.9     C1422.3,1147.1,1429.8,1101,1428.5,1062.1L1428.5,1062.1z" clip-rule="evenodd" class="colorffcdad svgShape"></path><path fill="#060352" fill-rule="evenodd" d="M1371.5,1082.4c-13.1-2.6-19.9-4.8-24.8-16c-9.2-21.3,9.8-34.7,29.3-34.9     c6,0,13.9-1.9,24.4-1.6c29.2,0.7,43.7,31.5,39,54.9c-5.1,25.4-10.5,23.8,0.7,49c11,24.9,46.8,42.4,7.1,75.3     c-34,28.1-90.4,3.5-71.9-54.7c6.6-20.8,32.6-51.3,10.1-66.7C1383.4,1086.2,1371.9,1082.5,1371.5,1082.4L1371.5,1082.4z" clip-rule="evenodd" class="color060352 svgShape"></path><path fill="#ffcdad" fill-rule="evenodd" d="M1390.2,1111.4l-5-14.7c0.6-5.3,4.9-11.2,11.2-6.4     C1403.1,1097,1393.5,1108.1,1390.2,1111.4L1390.2,1111.4z" clip-rule="evenodd" class="colorffcdad svgShape"></path></g><g fill="#000000" class="color000 svgShape"><path fill="#62cbec" fill-rule="evenodd" d="M390.1,1471.4c11.6-7.8,24.9,4.4,31.2,14.3c6.2,9.9,10.4,22.4,6.9,32      c-10.1,1.6-22-5.1-30-12.9C390,1496.9,380.8,1481.5,390.1,1471.4L390.1,1471.4z" clip-rule="evenodd" class="color62cbec svgShape"></path><path fill="#62cbec" d="M492.8,1800.8l-3.5-0.9c14.5-54.4-6.2-94.3-28-136.6c-13.3-25.7-27.1-52.3-33.4-83.4       c-7.1-35.1-3.4-71.1,11.4-110.2l3.4,1.3c-32.5,85.7-4.9,139.1,21.8,190.6C486.7,1704.6,507.6,1745.1,492.8,1800.8z" class="color62cbec svgShape"></path><path fill="#62cbec" fill-rule="evenodd" d="M472 1526c-10.4-9.4-25.4.9-33 9.8-7.5 8.9-13.5 20.6-11.3 30.7 9.8 3.1 22.5-1.9 31.6-8.5C468.4 1551.4 479.7 1537.4 472 1526L472 1526zM385.3 1595.5c6.4-12.4 24-8 34.3-2.4 10.2 5.7 19.9 14.6 21.3 24.8-8.1 6.3-21.7 6.1-32.6 3.1C397.5 1617.9 382 1608.8 385.3 1595.5L385.3 1595.5zM496.6 1615.4c-12.5-6.3-24.2 7.6-29.1 18.2-5 10.6-7.5 23.6-2.7 32.6 10.3.3 21.2-7.8 28.2-16.6C500 1640.7 507.1 1624.3 496.6 1615.4L496.6 1615.4zM432.9 1698.4c6.4-12.4 24-8 34.3-2.4 10.2 5.6 19.9 14.6 21.3 24.8-8.1 6.3-21.7 6.1-32.6 3.1C445.1 1720.9 429.7 1711.7 432.9 1698.4L432.9 1698.4zM474.3 1434.8c-11.8-7.5-24.9 5-31 15-6 9.9-9.9 22.6-6.2 32.1 10.2 1.5 21.9-5.5 29.8-13.5C474.9 1460.3 483.8 1444.7 474.3 1434.8L474.3 1434.8z" clip-rule="evenodd" class="color62cbec svgShape"></path><g fill="#000000" class="color000 svgShape"><path fill="#f8a780" fill-rule="evenodd" d="M559.1 1685.6c-9.9-15-31.9-7-44.2 1.6-12.4 8.6-23.6 21.5-24 34.7 11.3 7 28.7 4.9 42.2-.5C546.6 1716 565.2 1702.3 559.1 1685.6L559.1 1685.6zM583.4 1388.7c-15.9-8.5-31.4 9.1-38.1 22.6-6.8 13.5-10.4 30.1-4.5 41.9 13.2.7 27.6-9.4 36.9-20.6C586.9 1421.4 596.7 1400.4 583.4 1388.7L583.4 1388.7z" clip-rule="evenodd" class="colorf8a780 svgShape"></path><path fill="#f8a780" d="M496,1825.2c-26.7-69.6-5.2-124.5,17.5-182.5c27.2-69.7,55.4-141.8,2.2-247.2l4.7-2.4       c24.3,48.1,34,93.9,29.6,140c-3.9,40.7-17.9,76.7-31.5,111.5c-22.3,57.1-43.4,111-17.4,178.7L496,1825.2z" class="colorf8a780 svgShape"></path><path fill="#f8a780" fill-rule="evenodd" d="M485.7 1469.8c12-13.4 32.7-2.3 43.6 8.1 10.9 10.3 20 24.7 18.6 37.8-12.1 5.3-29.1.6-41.7-6.6C493.8 1501.8 477.3 1485.5 485.7 1469.8L485.7 1469.8zM606.3 1547.1c-9.9-15.1-31.9-7.1-44.3 1.6-12.3 8.6-23.5 21.4-23.9 34.6 11.2 7 28.7 4.9 42.2-.4C593.6 1577.6 612.3 1563.7 606.3 1547.1L606.3 1547.1zM466.2 1587.7c15.2-9.7 32 6.5 39.8 19.4 7.8 12.9 12.8 29.2 7.9 41.5-13.2 1.9-28.2-7.2-38.4-17.5C465.4 1620.7 453.9 1600.6 466.2 1587.7L466.2 1587.7zM470.4 1353.1c14-11.4 32.6 2.9 41.6 14.9 9.1 12 15.9 27.6 12.4 40.4-12.9 3.2-28.9-4.1-40-13.3C473.1 1385.9 459.5 1367.2 470.4 1353.1L470.4 1353.1z" clip-rule="evenodd" class="colorf8a780 svgShape"></path></g><g fill="#000000" class="color000 svgShape"><path fill="#0ebaa0" fill-rule="evenodd" d="M265.3,1482.4c10.2-13.3,29.9-4.4,40.7,4.3c10.8,8.8,20.3,21.4,19.8,33.6      c-10.9,5.7-26.8,2.6-38.8-3.2C274.9,1511.3,258.6,1497.4,265.3,1482.4L265.3,1482.4z" clip-rule="evenodd" class="color0ebaa0 svgShape"></path><path fill="#0ebaa0" d="M506,1816.1l-5.2,0.3c-4.1-66.8-42.5-104-83-143.5c-24.8-24.1-50.4-49-69.2-81.8       c-21.3-37.1-30.7-79.3-28.7-129.1l5.3,0.2c-4.4,108.9,46.8,158.7,96.3,206.9C462.7,1709.3,501.7,1747.3,506,1816.1z" class="color0ebaa0 svgShape"></path><path fill="#0ebaa0" fill-rule="evenodd" d="M378.4 1513.3c-15.2-6.7-28.4 10.6-33.6 23.4-5.2 12.9-7.4 28.5-1.2 38.9 12.2-.2 24.7-10.6 32.5-21.5C383.9 1543.3 391.5 1523.2 378.4 1513.3L378.4 1513.3zM306.6 1624.4c2.6-16.4 24.2-18.1 37.8-15.6 13.7 2.6 28 9.1 33.5 20-6.8 10.2-22.3 15.1-35.6 15.7C328.9 1645.2 307.9 1640.8 306.6 1624.4L306.6 1624.4zM440 1605c-16.5-2.4-24.5 17.7-26.1 31.5-1.6 13.8.5 29.4 9.3 37.9 11.8-3.5 21-16.9 25.6-29.5C453.3 1632.3 455.2 1611.1 440 1605L440 1605zM399.3 1722.8c2.6-16.4 24.2-18.1 37.8-15.6 13.7 2.6 28 9.1 33.5 20-6.8 10.2-22.2 15.1-35.6 15.7C421.5 1743.6 400.6 1739.2 399.3 1722.8L399.3 1722.8zM346.7 1409.3c-16.1-4.2-26.3 15-29.3 28.5-3.1 13.5-2.8 29.3 5.1 38.6 12-2.1 22.7-14.4 28.5-26.4C356.9 1437.9 361.1 1417 346.7 1409.3L346.7 1409.3z" clip-rule="evenodd" class="color0ebaa0 svgShape"></path></g><g fill="#000000" class="color000 svgShape"><path fill="#fcaece" fill-rule="evenodd" d="M702,1497.1c-9.9-12-28.1-3-37.8,5.6c-9.8,8.6-18.1,20.7-17.3,32.1      c10.3,5,25.1,1.5,36.1-4.4C694.1,1524.4,708.8,1510.8,702,1497.1L702,1497.1z" clip-rule="evenodd" class="colorfcaece svgShape"></path><path fill="#fcaece" d="M494.4,1817.5l-5.3-0.1c1.5-64.5,36.6-101.4,73.7-140.4c44.5-46.7,90.5-95.1,82.4-196.6       l5.2-0.4c3.7,46.5-3.5,86.3-22.1,121.8c-16.4,31.3-39.5,55.5-61.7,78.9C530.2,1718.9,495.8,1755,494.4,1817.5z" class="colorfcaece svgShape"></path><path fill="#fcaece" fill-rule="evenodd" d="M597.5 1530.1c14-6.8 26.9 8.9 32.2 20.7 5.3 11.8 8 26.3 2.5 36.3-11.4.2-23.5-9-31.1-19C593.4 1558.2 585.7 1539.8 597.5 1530.1L597.5 1530.1zM668.5 1631.2c-3-15.3-23.2-16.1-35.9-13.2-12.6 2.9-25.7 9.5-30.5 19.9 6.7 9.3 21.4 13.2 33.9 13.4C648.5 1651.4 667.9 1646.5 668.5 1631.2L668.5 1631.2zM543.3 1617.9c15.3-2.8 23.5 15.7 25.5 28.5 2 12.9.7 27.5-7.3 35.7-11.1-2.8-20.2-14.9-24.9-26.6C531.8 1643.9 529.3 1624.1 543.3 1617.9L543.3 1617.9zM585.6 1726.5c-3-15.3-23.3-16.1-35.9-13.2-12.6 2.9-25.8 9.5-30.5 19.9 6.7 9.3 21.3 13.2 33.9 13.4C565.6 1746.7 585 1741.7 585.6 1726.5L585.6 1726.5zM623.4 1431.8c14.9-4.5 25.1 13 28.4 25.6 3.3 12.5 3.6 27.2-3.4 36.2-11.3-1.6-21.7-12.6-27.7-23.6C614.8 1458.9 610.1 1439.5 623.4 1431.8L623.4 1431.8z" clip-rule="evenodd" class="colorfcaece svgShape"></path></g><polygon fill="#0643a3" fill-rule="evenodd" points="501.6 1812.5 525.1 1844.8 548.6 1877.1 501.6 1877.1 454.7 1877.1 478.2 1844.8" clip-rule="evenodd" class="color0643a3 svgShape"></polygon><path fill="#2c7efe" fill-rule="evenodd" d="M625.3,1757.3c-5.1,60-58.5,107.2-123.7,107.2c-65.1,0-118.5-47.2-123.7-107.2H625.3z" clip-rule="evenodd" class="color2c7efe svgShape"></path><path fill="#ffffff" fill-rule="evenodd" d="M475.8,1854.2c-45.2-9.5-79.6-45.7-83.5-90.1h11.9C410.2,1804.3,437.8,1838,475.8,1854.2     L475.8,1854.2z" clip-rule="evenodd" class="colorfff svgShape"></path></g><g fill="#000000" class="color000 svgShape"><path fill="#ffffff" fill-rule="evenodd" d="M385.4,582.5c-55.5,13.2-99.6,54.9-166.7,82.2C232,795,279.1,923.4,389.9,984.3h4.9      C505.6,923.4,552.6,795,566,664.7c-67.2-27.2-111.2-68.9-166.7-82.2H385.4z" clip-rule="evenodd" class="colorfff svgShape"></path><path fill="#8dafdb" fill-rule="evenodd" d="M386.6,616.6c-46.1,11-82.7,45.6-138.5,68.2c11.1,108.3,50.2,214.9,142.2,265.4h4.1      c92-50.5,131.1-157.2,142.2-265.4c-55.8-22.6-92.4-57.2-138.5-68.2H386.6z" clip-rule="evenodd" class="color8dafdb svgShape"></path><path fill="#98b9e1" fill-rule="evenodd" d="M393.8,616.6v333.7h-3.5c-92-50.5-131.1-157.2-142.2-265.4c55.8-22.6,92.4-57.2,138.5-68.2      H393.8z" clip-rule="evenodd" class="color98b9e1 svgShape"></path><g fill="#000000" class="color000 svgShape"><path fill="#ffffff" fill-rule="evenodd" d="M393.9,656.4L393.9,656.4c29.6,0,53.9,19.6,53.9,43.5v48.8c0,23.9-24.3,43.5-53.9,43.5      l0,0c-29.7,0-54-19.6-54-43.5v-48.8C339.9,676,364.2,656.4,393.9,656.4L393.9,656.4z M393.9,676L393.9,676      c16.9,0,30.7,11.1,30.7,24.8V758c0,13.6-13.8,24.8-30.7,24.8l0,0c-16.9,0-30.7-11.1-30.7-24.8v-57.2      C363.2,687.1,376.9,676,393.9,676L393.9,676z" clip-rule="evenodd" class="colorfff svgShape"></path><path fill="#4b76ba" fill-rule="evenodd" d="M342.4,736h102.8c9.9,0,18,6.9,18,15.4V844c0,8.4-8.1,15.4-18,15.4H342.4      c-10,0-18-6.9-18-15.4v-92.6C324.4,742.9,332.5,736,342.4,736L342.4,736z" clip-rule="evenodd" class="color4b76ba svgShape"></path><path fill="#15489d" fill-rule="evenodd" d="M393.9,759.5c11.4,0,20.7,9.3,20.7,20.7c0,8.7-5.3,16.1-12.8,19.2l6.7,23.1h-14.5h-14.6      l6.7-23.1c-7.6-3.1-12.8-10.5-12.8-19.2C373.1,768.8,382.4,759.5,393.9,759.5L393.9,759.5z" clip-rule="evenodd" class="color15489d svgShape"></path></g></g></svg></g></svg>